inDegrees=yes
name=ik_lifting_orientations
DataType=double
version=3
OpenSimVersion=4.5-2024-01-10-34fd6af
endheader
time	pelvis_tilt	pelvis_list	pelvis_rotation	pelvis_tx	pelvis_ty	pelvis_tz	hip_flexion_r	hip_adduction_r	hip_rotation_r	knee_angle_r	knee_angle_r_beta	ankle_angle_r	subtalar_angle_r	mtp_angle_r	hip_flexion_l	hip_adduction_l	hip_rotation_l	knee_angle_l	knee_angle_l_beta	ankle_angle_l	subtalar_angle_l	mtp_angle_l	lumbar_extension	lumbar_bending	lumbar_rotation	arm_flex_r	arm_add_r	arm_rot_r	elbow_flex_r	pro_sup_r	wrist_flex_r	wrist_dev_r	arm_flex_l	arm_add_l	arm_rot_l	elbow_flex_l	pro_sup_l	wrist_flex_l	wrist_dev_l
1.37	6.200084485411486	8.471158342958759	-104.2139237500258	0	0.9399999998679526	0	44.99389511274803	-10.42733607535023	0	59.99733253291463	1.047150995113269	-5.1483619281077	0	0	44.99389511274803	-10.42733607535023	0	59.99733253291463	1.047150995113269	-5.1483619281077	0	0	-48.63847761619148	-7.565730952147838	-1.546056766131857	59.20802041715233	-23.04960691270578	16.33200262517712	37.41265291110017	1.825944547398338	0	0	0	-11.34988541461725	0	88.210169497351	1.825944547398338	0	0
1.38	5.300719788998403	7.680427709792392	-102.1677911267734	0	0.9399999998679526	0	44.99394772796978	-10.41853358153382	0	59.997356671543	1.047151416411811	-5.144706663274984	0	0	44.99394772796978	-10.41853358153382	0	59.997356671543	1.047151416411811	-5.144706663274984	0	0	-47.61248578930327	-5.726920552887115	-2.35690458197304	58.22010417430955	-23.30366605703251	16.2603723914617	39.40286862502045	1.813870720728271	0	0	0	-11.36907723293457	0	88.22200328899262	1.813870720728271	0	0
1.39	4.410977134836622	6.801783656528031	-100.1367252982655	0	0.9399999998679526	0	44.99398202735996	-10.41283125993816	0	59.99737233927414	1.047151689865306	-5.142345560293198	0	0	44.99398202735996	-10.41283125993816	0	59.99737233927414	1.047151689865306	-5.142345560293198	0	0	-47.7040641117318	-3.913060945735348	-3.129759851987275	58.28810222260459	-23.41924240333247	15.84520902541181	41.14310773294677	1.80599569502612	0	0	0	-11.38159763627495	0	88.22972175453801	1.80599569502612	0	0
1.4	3.674003775070382	6.104103041122099	-98.24543598512878	0	0.9399999998679526	0	44.99402905985806	-10.40513808796122	0	59.99739395427821	1.047152067118295	-5.139174314266649	0	0	44.99402905985806	-10.40513808796122	0	59.99739395427821	1.047152067118295	-5.139174314266649	0	0	-46.69727727046853	-2.270987178927648	-4.060208843920995	57.41656487792762	-23.14922207463497	15.34878519099858	42.84896965188825	1.795160372855135	0	0	0	-11.39886737942028	0	88.24034166666893	1.795160372855135	0	0
1.41	3.144796899462244	5.658190777059263	-96.80927127128346	0	0.9399999998679526	0	44.99407198946707	-10.39812594926884	0	59.99741359815769	1.04715240996867	-5.136286640204544	0	0	44.99407198946707	-10.39812594926884	0	59.99741359815769	1.04715240996867	-5.136286640204544	0	0	-45.34193482367864	-1.089051028351988	-4.854809092166338	56.59860780385964	-23.02054857552566	15.08201254131109	44.8965097440243	1.785271138493022	0	0	0	-11.41462682388434	0	88.25003429941029	1.785271138493022	0	0
1.42	2.636424617704988	5.176322453312543	-95.37155545294588	0	0.9399999998679526	0	44.99411571710208	-10.39099824230038	0	59.99743352892774	1.04715275782623	-5.133355074095167	0	0	44.99411571710208	-10.39099824230038	0	59.99743352892774	1.04715275782623	-5.133355074095167	0	0	-43.75916575972347	0.01229782772327105	-5.728410597997819	55.66300334665512	-23.11803547259472	15.21213282932515	47.49581243081787	1.77519813016836	0	0	0	-11.43067751880595	0	88.25990705254793	1.77519813016836	0	0
1.43	2.028362697361096	4.539865062424814	-93.25513871339297	0	0.9399999998679526	0	44.99416174158109	-10.38369222147351	0	59.99745466339609	1.047153126692288	-5.130374554214426	0	0	44.99416174158109	-10.38369222147351	0	59.99745466339609	1.047153126692288	-5.130374554214426	0	0	-42.32790177642454	1.583872441851488	-6.975389746608132	54.76425720852554	-23.13961247072396	15.32344493357911	50.09366687339835	1.764543369995062	0	0	0	-11.44771462008312	0	88.27034999547988	1.764543369995062	0	0
1.44	1.436258438637081	4.036072686408967	-91.08511762979366	0	0.9399999998679526	0	44.99420864674858	-10.37638564039008	0	59.99747622442765	1.047153503003279	-5.127413757214345	0	0	44.99420864674858	-10.37638564039008	0	59.99747622442765	1.047153503003279	-5.127413757214345	0	0	-40.65758262831387	3.097176568799382	-8.426269353965676	53.66747469966901	-22.51901907328428	15.5369386590814	48.74133485587041	1.753652950463256	0	0	0	-11.46516198070648	0	88.28102391470971	1.753652950463256	0	0
1.45	0.8926921513176973	3.45800230641589	-88.88980401605001	0	0.9399999998679526	0	44.99425600726121	-10.36894101153588	0	59.99749781650976	1.047153879856204	-5.124389914459536	0	0	44.99425600726121	-10.36894101153588	0	59.99749781650976	1.047153879856204	-5.124389914459536	0	0	-38.49893981401057	7.733414604452242	-13.43470206916901	54.59862049609779	-21.11898562107344	20.7326677286973	47.31346003483014	1.742678660336644	0	0	0	-11.48271757105474	0	88.29178003576165	1.742678660336644	0	0
1.46	0.3703031577497335	2.915936584671787	-86.86153020942211	0	0.9399999998679526	0	44.99429586081905	-10.3627900344734	0	59.99751607021265	1.04715419844342	-5.121905241050981	0	0	44.99429586081905	-10.3627900344734	0	59.99751607021265	1.04715419844342	-5.121905241050981	0	0	-36.73173109654308	8.298674399697511	-14.56106381904532	53.60432797753452	-20.97994095699462	20.23547374893745	50.04746083545789	1.733411198667245	0	0	0	-11.49758004941696	0	88.30086326217142	1.733411198667245	0	0
